<svg width="109" height="37" viewBox="0 0 109 37" fill="none" xmlns="http://www.w3.org/2000/svg">
<path d="M11.0111 5.55026C10.8169 5.64566 10.6366 5.72236 10.4702 5.78034C10.0915 5.91157 9.72843 5.96211 9.38106 5.93194C9.60437 6.41974 9.87751 6.89014 10.2005 7.34313C10.5787 7.87297 11.006 8.35052 11.4824 8.77581C12.0287 9.26352 12.6261 9.66948 13.2744 9.9937C14.0044 10.3587 14.7882 10.6146 15.6261 10.7613C15.5789 10.8032 15.5146 10.8487 15.4331 10.8979C15.3562 10.9442 15.2873 10.9801 15.2262 11.0055C15.8115 11.1623 16.373 11.2318 16.9108 11.2138C17.3985 11.1972 17.8583 11.1073 18.2903 10.944C18.7451 10.7723 19.1352 10.5315 19.4605 10.2215C19.8958 9.80617 20.2134 9.37986 20.4132 8.94255C20.6372 8.4519 20.7399 7.89537 20.7214 7.27295C20.6954 6.3923 20.4977 5.63193 20.1284 4.99183C19.7728 4.37586 19.2831 3.91235 18.6592 3.60128C18.3434 3.4441 18.02 3.33276 17.689 3.26726C17.3673 3.20349 17.0309 3.18164 16.6798 3.20171C16.3439 3.22094 15.9852 3.27918 15.6035 3.37644C15.2465 3.46733 14.856 3.59587 14.432 3.76206C13.9256 3.96049 13.3967 4.21142 12.8454 4.51486C12.6647 4.61437 12.4429 4.74107 12.1799 4.89493C11.8514 5.08736 11.6497 5.20489 11.5748 5.24752C11.3586 5.37099 11.1707 5.4719 11.0111 5.55026Z" fill="white"/>
<mask id="path-2-inside-1_182_74" fill="white">
<path d="M84.9246 13.4979V12.2199L84.9177 12.2131V13.4774C84.922 13.4817 84.9243 13.4885 84.9246 13.4979ZM84.9177 13.4774V13.5321C84.918 13.5221 84.9203 13.5108 84.9246 13.4979C84.9243 13.4885 84.922 13.4817 84.9177 13.4774Z"/>
</mask>
<path d="M84.9246 13.4979V12.2199L84.9177 12.2131V13.4774C84.922 13.4817 84.9243 13.4885 84.9246 13.4979ZM84.9177 13.4774V13.5321C84.918 13.5221 84.9203 13.5108 84.9246 13.4979C84.9243 13.4885 84.922 13.4817 84.9177 13.4774Z" fill="black"/>
<path d="M84.9177 13.4774L84.5642 13.831C84.4395 13.7063 84.4263 13.5626 84.4248 13.5131L84.9246 13.4979L85.4243 13.4828C85.4223 13.4145 85.4045 13.2571 85.2713 13.1239L84.9177 13.4774ZM84.9246 13.4979L85.8732 13.8142L85.9246 13.6602V13.4979H84.9246ZM84.9246 12.2199H85.9246V11.8058L85.6317 11.5129L84.9246 12.2199ZM84.9177 12.2131L85.6249 11.5061L83.9177 9.79854V12.2131H84.9177ZM84.9177 13.5321H83.9177L85.9173 13.5607L84.9177 13.5321ZM84.9246 13.4979H85.9246V12.2199H84.9246H83.9246V13.4979H84.9246ZM84.9246 12.2199L85.6317 11.5129L85.6249 11.5061L84.9177 12.2131L84.2105 12.9201L84.2174 12.927L84.9246 12.2199ZM84.9177 12.2131H83.9177V13.4774H84.9177H85.9177V12.2131H84.9177ZM84.9177 13.4774H83.9177V13.5321H84.9177H85.9177V13.4774H84.9177ZM84.9177 13.5321L85.9173 13.5607C85.914 13.6762 85.8898 13.7646 85.8732 13.8142L84.9246 13.4979L83.9759 13.1817C83.9508 13.2569 83.922 13.3681 83.9181 13.5036L84.9177 13.5321Z" fill="white" mask="url(#path-2-inside-1_182_74)"/>
<path d="M22.5341 4.75092V16.957C22.5312 17.1914 22.5547 17.4599 22.6591 17.6933H21.6904C21.7752 17.5049 21.8057 17.2936 21.8115 17.0956V4.75092H22.5341ZM24.3632 2.09271C24.6682 2.16968 24.9229 2.29075 25.1347 2.44916L25.2851 2.57513C25.4836 2.76758 25.6242 2.96571 25.7168 3.16791L25.7539 3.24994L27.5449 7.2431H26.7128L25.1035 3.30365L25.0654 3.2099L25.0546 3.19916C24.9862 3.05657 24.8895 2.9336 24.7714 2.83002H24.7724C24.7707 2.82846 24.7692 2.82668 24.7675 2.82513C24.7653 2.82317 24.763 2.82123 24.7607 2.81927H24.7597C24.6481 2.71954 24.5251 2.6397 24.3925 2.57806C24.4036 2.41624 24.3932 2.25478 24.3632 2.09271Z" fill="white" stroke="white"/>
<path d="M22.1664 1.61426C22.3856 1.6143 22.5521 1.68567 22.6977 1.83398L22.7074 1.84277C22.8726 2.00218 22.9447 2.17496 22.9447 2.38574C22.9447 2.59569 22.8733 2.7593 22.7143 2.90723L22.6918 2.92969C22.5446 3.08517 22.3796 3.15621 22.1664 3.15625C21.9526 3.15625 21.7791 3.0853 21.6205 2.92383L21.6147 2.91699L21.517 2.80371C21.4345 2.68517 21.395 2.55006 21.3949 2.38574C21.3949 2.16763 21.4654 1.99328 21.6176 1.83691C21.774 1.68478 21.9482 1.61426 22.1664 1.61426Z" fill="white" stroke="white"/>
<path d="M50.3841 13.4774C50.3888 13.4821 50.3912 13.4895 50.3915 13.4997" stroke="white" stroke-width="0.1" stroke-linecap="round" stroke-linejoin="round"/>
<mask id="path-7-inside-2_182_74" fill="white">
<path d="M16.9717 6.33565L16.9102 6.34932L16.6915 6.43133L16.6641 6.445L16.6368 6.45183L16.4044 6.56118L16.3634 6.58852L16.0217 6.79355L15.8644 6.91656L15.8166 6.9644L15.8098 6.9849H15.8234L16.4933 6.80721L16.7325 6.76621L16.7803 6.75254L16.999 6.7252H17.0264L17.0537 6.71837L17.1699 6.71153C17.3021 6.69331 17.4638 6.6842 17.6552 6.6842L18.366 6.71153L18.4002 6.71837H18.4344L18.4959 6.7252L19.1452 6.84822L19.692 7.02591C19.8378 7.08514 19.9859 7.1512 20.1363 7.2241L20.191 7.24461L21.0317 7.76401L21.0453 7.77084L21.059 7.78451L21.0863 7.79818L21.2982 7.95537C21.3028 7.95992 21.3096 7.95765 21.3187 7.94853V7.93487L21.1752 7.70934L21.1615 7.682L21.1478 7.66833L21.141 7.65466L21.1 7.59315L21.018 7.49747L21.0043 7.48381L20.9906 7.4633L20.8676 7.31978L20.5464 7.01908C20.5099 6.98263 20.4461 6.93251 20.355 6.86872C20.232 6.77304 20.0793 6.67736 19.8971 6.58168L19.8355 6.55435L19.8014 6.53385L19.3639 6.35615C19.1999 6.30604 19.0062 6.26047 18.783 6.21947L18.0448 6.16479L17.621 6.19897C17.4479 6.21719 17.2724 6.24908 17.0947 6.29465L16.9717 6.33565Z"/>
</mask>
<path d="M16.9717 6.33565L16.9102 6.34932L16.6915 6.43133L16.6641 6.445L16.6368 6.45183L16.4044 6.56118L16.3634 6.58852L16.0217 6.79355L15.8644 6.91656L15.8166 6.9644L15.8098 6.9849H15.8234L16.4933 6.80721L16.7325 6.76621L16.7803 6.75254L16.999 6.7252H17.0264L17.0537 6.71837L17.1699 6.71153C17.3021 6.69331 17.4638 6.6842 17.6552 6.6842L18.366 6.71153L18.4002 6.71837H18.4344L18.4959 6.7252L19.1452 6.84822L19.692 7.02591C19.8378 7.08514 19.9859 7.1512 20.1363 7.2241L20.191 7.24461L21.0317 7.76401L21.0453 7.77084L21.059 7.78451L21.0863 7.79818L21.2982 7.95537C21.3028 7.95992 21.3096 7.95765 21.3187 7.94853V7.93487L21.1752 7.70934L21.1615 7.682L21.1478 7.66833L21.141 7.65466L21.1 7.59315L21.018 7.49747L21.0043 7.48381L20.9906 7.4633L20.8676 7.31978L20.5464 7.01908C20.5099 6.98263 20.4461 6.93251 20.355 6.86872C20.232 6.77304 20.0793 6.67736 19.8971 6.58168L19.8355 6.55435L19.8014 6.53385L19.3639 6.35615C19.1999 6.30604 19.0062 6.26047 18.783 6.21947L18.0448 6.16479L17.621 6.19897C17.4479 6.21719 17.2724 6.24908 17.0947 6.29465L16.9717 6.33565Z" fill="#358A2F"/>
<path d="M16.9717 6.33565L17.1886 7.31184L17.239 7.30066L17.2879 7.28435L16.9717 6.33565ZM16.9102 6.34932L16.6933 5.37313L16.6248 5.38835L16.5591 5.41298L16.9102 6.34932ZM16.6915 6.43133L16.3404 5.49499L16.2912 5.51342L16.2443 5.53689L16.6915 6.43133ZM16.6641 6.445L16.9066 7.41515L17.0131 7.38853L17.1113 7.33944L16.6641 6.445ZM16.6368 6.45183L16.3943 5.48168L16.2995 5.50538L16.211 5.547L16.6368 6.45183ZM16.4044 6.56118L15.9786 5.65635L15.9115 5.68794L15.8497 5.72911L16.4044 6.56118ZM16.3634 6.58852L16.8779 7.44603L16.8983 7.43379L16.9181 7.42059L16.3634 6.58852ZM16.0217 6.79355L15.5072 5.93603L15.4541 5.96787L15.4054 6.00601L16.0217 6.79355ZM15.8644 6.91656L15.2482 6.12903L15.2003 6.16647L15.1574 6.20942L15.8644 6.91656ZM15.8166 6.9644L15.1095 6.25726L14.9426 6.42418L14.8679 6.64813L15.8166 6.9644ZM15.8098 6.9849L14.8611 6.66863L14.4223 7.9849H15.8098V6.9849ZM15.8234 6.9849V7.9849H15.9538L16.0798 7.95147L15.8234 6.9849ZM16.4933 6.80721L16.3243 5.82159L16.2802 5.82916L16.2369 5.84065L16.4933 6.80721ZM16.7325 6.76621L16.9014 7.75183L16.955 7.74266L17.0072 7.72774L16.7325 6.76621ZM16.7803 6.75254L16.6563 5.76026L16.5798 5.76983L16.5056 5.79101L16.7803 6.75254ZM16.999 6.7252V5.7252H16.9368L16.875 5.73292L16.999 6.7252ZM17.0264 6.7252V7.7252H17.1495L17.2689 7.69536L17.0264 6.7252ZM17.0537 6.71837L16.995 5.7201L16.9018 5.72558L16.8112 5.74822L17.0537 6.71837ZM17.1699 6.71153L17.2286 7.70981L17.2677 7.70751L17.3065 7.70216L17.1699 6.71153ZM17.6552 6.6842L17.6936 5.68494L17.6744 5.6842H17.6552V6.6842ZM18.366 6.71153L18.5621 5.73095L18.484 5.71533L18.4045 5.71227L18.366 6.71153ZM18.4002 6.71837L18.2041 7.69895L18.3012 7.71837H18.4002V6.71837ZM18.4344 6.71837L18.5448 5.72448L18.4898 5.71837H18.4344V6.71837ZM18.4959 6.7252L18.682 5.74268L18.6444 5.73555L18.6063 5.73132L18.4959 6.7252ZM19.1452 6.84822L19.4543 5.89718L19.3938 5.87753L19.3314 5.8657L19.1452 6.84822ZM19.692 7.02591L20.0684 6.09943L20.0352 6.08594L20.0011 6.07487L19.692 7.02591ZM20.1363 7.2241L19.7 8.12393L19.7418 8.14416L19.7852 8.16044L20.1363 7.2241ZM20.191 7.24461L20.7166 6.39388L20.6335 6.34255L20.5421 6.30827L20.191 7.24461ZM21.0317 7.76401L20.5061 8.61474L20.5443 8.63838L20.5845 8.65848L21.0317 7.76401ZM21.0453 7.77084L21.7524 7.0637L21.6376 6.94894L21.4924 6.87637L21.0453 7.77084ZM21.059 7.78451L20.3519 8.49165L20.4667 8.60638L20.6118 8.67894L21.059 7.78451ZM21.0863 7.79818L21.6821 6.99505L21.6118 6.9429L21.5335 6.90375L21.0863 7.79818ZM21.2982 7.95537L22.0053 7.24823L21.9532 7.19613L21.894 7.15224L21.2982 7.95537ZM21.3187 7.94853L22.0258 8.65568L22.3187 8.36278V7.94853H21.3187ZM21.3187 7.93487H22.3187V7.64364L22.1624 7.39795L21.3187 7.93487ZM21.1752 7.70934L20.2808 8.15657L20.3038 8.20272L20.3316 8.24625L21.1752 7.70934ZM21.1615 7.682L22.0559 7.23476L21.9834 7.08961L21.8686 6.97486L21.1615 7.682ZM21.1478 7.66833L20.2535 8.11561L20.326 8.26074L20.4408 8.37547L21.1478 7.66833ZM21.141 7.65466L22.0354 7.20738L22.0076 7.15171L21.973 7.09992L21.141 7.65466ZM21.1 7.59315L21.932 7.03841L21.8985 6.98817L21.8592 6.94233L21.1 7.59315ZM21.018 7.49747L21.7772 6.84665L21.7522 6.81749L21.7251 6.79033L21.018 7.49747ZM21.0043 7.48381L20.1723 8.03853L20.2272 8.12093L20.2972 8.19095L21.0043 7.48381ZM20.9906 7.4633L21.8227 6.90857L21.7892 6.85832L21.7499 6.81247L20.9906 7.4633ZM20.8676 7.31978L21.6268 6.66895L21.5911 6.62726L21.551 6.58973L20.8676 7.31978ZM20.5464 7.01908L19.8393 7.72622L19.851 7.73787L19.863 7.74913L20.5464 7.01908ZM20.355 6.86872L19.7411 7.6581L19.761 7.67355L19.7816 7.68798L20.355 6.86872ZM19.8971 6.58168L20.3619 5.69627L20.333 5.68111L20.3032 5.66786L19.8971 6.58168ZM19.8355 6.55435L19.3211 7.41187L19.3735 7.44333L19.4294 7.46817L19.8355 6.55435ZM19.8014 6.53385L20.3158 5.67632L20.2494 5.6365L20.1777 5.60737L19.8014 6.53385ZM19.3639 6.35615L19.7403 5.42967L19.6989 5.41285L19.6561 5.39979L19.3639 6.35615ZM18.783 6.21947L18.9636 5.23592L18.9106 5.22618L18.8568 5.2222L18.783 6.21947ZM18.0448 6.16479L18.1187 5.16753L18.0415 5.16181L17.9644 5.16803L18.0448 6.16479ZM17.621 6.19897L17.5406 5.2022L17.5285 5.20318L17.5164 5.20446L17.621 6.19897ZM17.0947 6.29465L16.8464 5.32598L16.8121 5.33476L16.7785 5.34595L17.0947 6.29465ZM16.9717 6.33565L16.7548 5.35946L16.6933 5.37313L16.9102 6.34932L17.1271 7.32551L17.1886 7.31184L16.9717 6.33565ZM16.9102 6.34932L16.5591 5.41298L16.3404 5.49499L16.6915 6.43133L17.0426 7.36767L17.2613 7.28566L16.9102 6.34932ZM16.6915 6.43133L16.2443 5.53689L16.217 5.55055L16.6641 6.445L17.1113 7.33944L17.1387 7.32578L16.6915 6.43133ZM16.6641 6.445L16.4216 5.47485L16.3943 5.48168L16.6368 6.45183L16.8793 7.42199L16.9066 7.41515L16.6641 6.445ZM16.6368 6.45183L16.211 5.547L15.9786 5.65635L16.4044 6.56118L16.8302 7.46602L17.0626 7.35667L16.6368 6.45183ZM16.4044 6.56118L15.8497 5.72911L15.8087 5.75644L16.3634 6.58852L16.9181 7.42059L16.9591 7.39326L16.4044 6.56118ZM16.3634 6.58852L15.8489 5.731L15.5072 5.93603L16.0217 6.79355L16.5361 7.65106L16.8779 7.44603L16.3634 6.58852ZM16.0217 6.79355L15.4054 6.00601L15.2482 6.12903L15.8644 6.91656L16.4807 7.7041L16.6379 7.58108L16.0217 6.79355ZM15.8644 6.91656L15.1574 6.20942L15.1095 6.25726L15.8166 6.9644L16.5237 7.67154L16.5715 7.6237L15.8644 6.91656ZM15.8166 6.9644L14.8679 6.64813L14.8611 6.66863L15.8098 6.9849L16.7584 7.30118L16.7653 7.28067L15.8166 6.9644ZM15.8098 6.9849V7.9849H15.8234V6.9849V5.9849H15.8098V6.9849ZM15.8234 6.9849L16.0798 7.95147L16.7497 7.77378L16.4933 6.80721L16.2369 5.84065L15.567 6.01834L15.8234 6.9849ZM16.4933 6.80721L16.6622 7.79284L16.9014 7.75183L16.7325 6.76621L16.5635 5.78058L16.3243 5.82159L16.4933 6.80721ZM16.7325 6.76621L17.0072 7.72774L17.055 7.71407L16.7803 6.75254L16.5056 5.79101L16.4578 5.80468L16.7325 6.76621ZM16.7803 6.75254L16.9044 7.74482L17.1231 7.71748L16.999 6.7252L16.875 5.73292L16.6563 5.76026L16.7803 6.75254ZM16.999 6.7252V7.7252H17.0264V6.7252V5.7252H16.999V6.7252ZM17.0264 6.7252L17.2689 7.69536L17.2962 7.68852L17.0537 6.71837L16.8112 5.74822L16.7839 5.75505L17.0264 6.7252ZM17.0537 6.71837L17.1124 7.71664L17.2286 7.70981L17.1699 6.71153L17.1112 5.71326L16.995 5.7201L17.0537 6.71837ZM17.1699 6.71153L17.3065 7.70216C17.3786 7.69221 17.4917 7.6842 17.6552 7.6842V6.6842V5.6842C17.436 5.6842 17.2255 5.69441 17.0333 5.72091L17.1699 6.71153ZM17.6552 6.6842L17.6168 7.68346L18.3276 7.7108L18.366 6.71153L18.4045 5.71227L17.6936 5.68494L17.6552 6.6842ZM18.366 6.71153L18.1699 7.69212L18.2041 7.69895L18.4002 6.71837L18.5963 5.73779L18.5621 5.73095L18.366 6.71153ZM18.4002 6.71837V7.71837H18.4344V6.71837V5.71837H18.4002V6.71837ZM18.4344 6.71837L18.324 7.71226L18.3855 7.71909L18.4959 6.7252L18.6063 5.73132L18.5448 5.72448L18.4344 6.71837ZM18.4959 6.7252L18.3098 7.70773L18.9591 7.83074L19.1452 6.84822L19.3314 5.8657L18.682 5.74268L18.4959 6.7252ZM19.1452 6.84822L18.8362 7.79926L19.3829 7.97695L19.692 7.02591L20.0011 6.07487L19.4543 5.89718L19.1452 6.84822ZM19.692 7.02591L19.3157 7.95239C19.44 8.00291 19.5681 8.05999 19.7 8.12393L20.1363 7.2241L20.5725 6.32427C20.4037 6.24242 20.2356 6.16737 20.0684 6.09943L19.692 7.02591ZM20.1363 7.2241L19.7852 8.16044L19.8399 8.18095L20.191 7.24461L20.5421 6.30827L20.4874 6.28776L20.1363 7.2241ZM20.191 7.24461L19.6654 8.09534L20.5061 8.61474L21.0317 7.76401L21.5573 6.91328L20.7166 6.39388L20.191 7.24461ZM21.0317 7.76401L20.5845 8.65848L20.5982 8.66532L21.0453 7.77084L21.4924 6.87637L21.4788 6.86954L21.0317 7.76401ZM21.0453 7.77084L20.3383 8.47799L20.3519 8.49165L21.059 7.78451L21.7661 7.07737L21.7524 7.0637L21.0453 7.77084ZM21.059 7.78451L20.6118 8.67894L20.6391 8.69261L21.0863 7.79818L21.5335 6.90375L21.5062 6.89008L21.059 7.78451ZM21.0863 7.79818L20.4905 8.60131L20.7024 8.7585L21.2982 7.95537L21.894 7.15224L21.6821 6.99505L21.0863 7.79818ZM21.2982 7.95537L20.5911 8.66251C20.716 8.78737 20.8901 8.8949 21.1059 8.93808C21.3144 8.97978 21.4954 8.94828 21.6229 8.90578C21.848 8.83078 21.9851 8.69636 22.0258 8.65568L21.3187 7.94853L20.6117 7.24139C20.6432 7.20982 20.7724 7.08109 20.9906 7.00837C21.1147 6.96701 21.2925 6.93579 21.4982 6.97693C21.7112 7.01954 21.8827 7.12564 22.0053 7.24823L21.2982 7.95537ZM21.3187 7.94853H22.3187V7.93487H21.3187H20.3187V7.94853H21.3187ZM21.3187 7.93487L22.1624 7.39795L22.0188 7.17242L21.1752 7.70934L20.3316 8.24625L20.4751 8.47178L21.3187 7.93487ZM21.1752 7.70934L22.0696 7.2621L22.0559 7.23476L21.1615 7.682L20.2671 8.12923L20.2808 8.15657L21.1752 7.70934ZM21.1615 7.682L21.8686 6.97486L21.8549 6.96119L21.1478 7.66833L20.4408 8.37547L20.4544 8.38914L21.1615 7.682ZM21.1478 7.66833L22.0422 7.22105L22.0354 7.20738L21.141 7.65466L20.2466 8.10194L20.2535 8.11561L21.1478 7.66833ZM21.141 7.65466L21.973 7.09992L21.932 7.03841L21.1 7.59315L20.268 8.1479L20.309 8.20941L21.141 7.65466ZM21.1 7.59315L21.8592 6.94233L21.7772 6.84665L21.018 7.49747L20.2588 8.1483L20.3408 8.24398L21.1 7.59315ZM21.018 7.49747L21.7251 6.79033L21.7114 6.77666L21.0043 7.48381L20.2972 8.19095L20.3109 8.20462L21.018 7.49747ZM21.0043 7.48381L21.8363 6.92908L21.8227 6.90857L20.9906 7.4633L20.1586 8.01803L20.1723 8.03853L21.0043 7.48381ZM20.9906 7.4633L21.7499 6.81247L21.6268 6.66895L20.8676 7.31978L20.1084 7.97061L20.2314 8.11413L20.9906 7.4633ZM20.8676 7.31978L21.551 6.58973L21.2298 6.28902L20.5464 7.01908L19.863 7.74913L20.1842 8.04984L20.8676 7.31978ZM20.5464 7.01908L21.2534 6.31193C21.151 6.20949 21.0256 6.11752 20.9284 6.04946L20.355 6.86872L19.7816 7.68798C19.8171 7.71288 19.8402 7.7301 19.8534 7.7405C19.8598 7.74551 19.8617 7.74726 19.8603 7.74603C19.8593 7.74516 19.8514 7.73835 19.8393 7.72622L20.5464 7.01908ZM20.355 6.86872L20.9689 6.07934C20.787 5.93788 20.581 5.81129 20.3619 5.69627L19.8971 6.58168L19.4323 7.4671C19.5777 7.54343 19.6769 7.6082 19.7411 7.6581L20.355 6.86872ZM19.8971 6.58168L20.3032 5.66786L20.2417 5.64052L19.8355 6.55435L19.4294 7.46817L19.4909 7.49551L19.8971 6.58168ZM19.8355 6.55435L20.35 5.69682L20.3158 5.67632L19.8014 6.53385L19.2869 7.39137L19.3211 7.41187L19.8355 6.55435ZM19.8014 6.53385L20.1777 5.60737L19.7403 5.42967L19.3639 6.35615L18.9876 7.28263L19.425 7.46032L19.8014 6.53385ZM19.3639 6.35615L19.6561 5.39979C19.4459 5.33558 19.2133 5.28178 18.9636 5.23592L18.783 6.21947L18.6023 7.20302C18.7992 7.23917 18.9539 7.2765 19.0717 7.31251L19.3639 6.35615ZM18.783 6.21947L18.8568 5.2222L18.1187 5.16753L18.0448 6.16479L17.9709 7.16206L18.7091 7.21674L18.783 6.21947ZM18.0448 6.16479L17.9644 5.16803L17.5406 5.2022L17.621 6.19897L17.7014 7.19573L18.1252 7.16156L18.0448 6.16479ZM17.621 6.19897L17.5164 5.20446C17.2922 5.22805 17.0688 5.26896 16.8464 5.32598L17.0947 6.29465L17.3431 7.26332C17.4761 7.22921 17.6035 7.20633 17.7257 7.19347L17.621 6.19897ZM17.0947 6.29465L16.7785 5.34595L16.6555 5.38696L16.9717 6.33565L17.2879 7.28435L17.4109 7.24334L17.0947 6.29465Z" fill="#358A2F" mask="url(#path-7-inside-2_182_74)"/>
<path d="M28.5704 20.7014C28.4511 20.7972 28.332 20.8879 28.209 20.968C27.9523 21.133 27.6997 21.2316 27.4483 21.2737L27.2217 20.926C27.653 20.9222 28.0618 20.8651 28.4454 20.7453L28.4444 20.7444C28.487 20.7312 28.5286 20.7157 28.5704 20.7014ZM27.9844 8.25217L31.295 15.8957L31.4112 16.1633L31.0206 17.0178L27.1602 8.25217H27.9844Z" fill="white" stroke="white" stroke-width="1.02426"/>
<path d="M47.5715 16.4067H47.5725C47.5636 16.6956 47.5767 16.9591 47.6262 17.1821L47.6282 17.1928L47.6311 17.2026C47.6851 17.4061 47.7952 17.5649 47.9358 17.686L46.8743 17.937V9.22406H46.8733C46.8822 8.93889 46.869 8.678 46.8196 8.45551L46.8176 8.44672L46.8157 8.4389L46.7737 8.31097C46.7143 8.16396 46.6231 8.04371 46.512 7.94672L47.5715 7.69574V16.4067ZM40.263 15.4282C40.2775 16.2495 40.4969 16.963 40.9573 17.5248C40.539 17.2788 40.2177 16.9692 39.9837 16.5961L39.9817 16.5922C39.7484 16.2269 39.6107 15.8142 39.5745 15.3442L39.5657 15.1391L39.5647 9.22406C39.5736 8.93892 39.5604 8.67799 39.511 8.45551L39.509 8.44672L39.5071 8.4389L39.4651 8.31097C39.4057 8.16398 39.3145 8.0437 39.2034 7.94672L40.263 7.69574V15.4282Z" fill="white" stroke="white" stroke-width="1.02426"/>
<path d="M54.0397 16.9476C54.0367 17.174 54.0595 17.4359 54.1578 17.6673H53.2272C53.3063 17.482 53.3361 17.2772 53.3414 17.0862V9.2298C53.3515 8.93756 53.3382 8.66987 53.2877 8.44269L53.2858 8.43488L53.2838 8.42609L53.2418 8.29913C53.1825 8.15214 53.0911 8.03189 52.9801 7.93488L54.0397 7.6839V16.9476ZM58.1803 7.61554C58.4254 7.64224 58.7062 7.69511 59.024 7.78546V7.78644C59.3615 7.88329 59.7203 8.0604 60.0992 8.33136C60.053 8.37664 60.0045 8.42248 59.9498 8.46515L59.9479 8.46613C59.8094 8.57464 59.6334 8.64016 59.3942 8.64874C59.1823 8.64156 59.0514 8.60768 58.9733 8.57062L58.9108 8.53351C58.7838 8.4324 58.6902 8.3224 58.6237 8.20441H58.6246L58.6217 8.2005C58.4967 7.98313 58.3499 7.78725 58.1803 7.61554Z" fill="white" stroke="white" stroke-width="1.02426"/>
<path d="M64.0589 16.9596C64.0559 17.1861 64.0787 17.4479 64.1771 17.6794H63.2464C63.3255 17.494 63.3553 17.2893 63.3607 17.0983V9.24185C63.3708 8.94961 63.3574 8.68192 63.307 8.45474L63.305 8.44693L63.3031 8.43814L63.2611 8.31119C63.2017 8.16419 63.1104 8.04394 62.9993 7.94693L64.0589 7.69595V16.9596ZM68.1995 7.62759C68.4446 7.6543 68.7254 7.70716 69.0433 7.79752V7.79849C69.3808 7.89534 69.7395 8.07245 70.1185 8.34341C70.0723 8.38869 70.0238 8.43453 69.9691 8.4772L69.9671 8.47818C69.8286 8.5867 69.6526 8.65222 69.4134 8.6608C69.2015 8.65362 69.0706 8.61974 68.9925 8.58267L68.93 8.54556C68.803 8.44446 68.7095 8.33445 68.6429 8.21646H68.6439L68.6409 8.21255C68.5159 7.99519 68.3692 7.7993 68.1995 7.62759Z" fill="white" stroke="white" stroke-width="1.02426"/>
<path d="M79.637 9.24945L79.7688 9.44574C80.0566 9.91556 80.2201 10.4155 80.262 10.9516L80.2728 11.184V16.4067C80.2638 16.6956 80.277 16.9591 80.3265 17.1821L80.3284 17.1928L80.3313 17.2026C80.3852 17.4058 80.4948 17.5649 80.6351 17.686L79.5745 17.935V9.76312C79.5792 9.53668 79.563 9.31837 79.5286 9.10883C79.5655 9.15519 79.6025 9.20135 79.637 9.24945ZM74.6946 12.0307C74.2357 12.3388 73.8542 12.725 73.556 13.1899L73.553 13.1948C73.181 13.789 73.0018 14.4919 72.9915 15.2797V15.2944C73.002 15.9585 73.1498 16.5596 73.4544 17.0786L73.4554 17.0805C73.552 17.2433 73.6611 17.3937 73.7796 17.5336C73.4101 17.3632 73.0905 17.1479 72.8186 16.8862L72.6644 16.727C72.302 16.3234 72.097 15.7874 72.0833 15.0756C72.0955 14.3637 72.267 13.8123 72.5686 13.3891L72.7063 13.2153C73.0699 12.7988 73.5342 12.4695 74.1106 12.2328L74.3645 12.1371C74.4734 12.0993 74.5837 12.0636 74.6946 12.0307ZM75.4319 7.67133C75.1655 7.85375 74.926 8.06134 74.7171 8.29633C74.5107 8.52841 74.3002 8.73198 74.0862 8.90863C73.9515 9.01694 73.7748 9.08464 73.5257 9.08929C73.3842 9.08514 73.2317 9.03497 73.0608 8.90277L73.055 8.89886L72.9231 8.78949C72.9146 8.78165 72.907 8.77298 72.8987 8.76508C73.2692 8.48915 73.6915 8.24445 74.1673 8.03265C74.5575 7.85929 74.9786 7.73895 75.4319 7.67133Z" fill="white" stroke="white" stroke-width="1.02426"/>
<path d="M0.772727 34V28.1818H1.30398V30.8494H4.60511V28.1818H5.13636V34H4.60511V31.3267H1.30398V34H0.772727ZM9.93807 34.0909C9.53087 34.0909 9.1786 33.9962 8.88125 33.8068C8.5839 33.6155 8.35379 33.3513 8.19091 33.0142C8.02992 32.6752 7.94943 32.285 7.94943 31.8438C7.94943 31.4044 8.02992 31.0142 8.19091 30.6733C8.35379 30.3305 8.57822 30.0625 8.8642 29.8693C9.15208 29.6742 9.48447 29.5767 9.86136 29.5767C10.0981 29.5767 10.3263 29.6203 10.546 29.7074C10.7657 29.7926 10.9627 29.9242 11.1369 30.1023C11.3131 30.2784 11.4523 30.5009 11.5545 30.7699C11.6568 31.0369 11.708 31.3532 11.708 31.7188V31.9688H8.29886V31.5227H11.1909C11.1909 31.2424 11.1341 30.9905 11.0205 30.767C10.9087 30.5417 10.7525 30.3636 10.5517 30.233C10.3528 30.1023 10.1227 30.0369 9.86136 30.0369C9.58485 30.0369 9.34148 30.1108 9.13125 30.2585C8.92102 30.4062 8.75625 30.6013 8.63693 30.8438C8.51951 31.0862 8.45985 31.3513 8.45795 31.6392V31.9062C8.45795 32.2528 8.51761 32.5559 8.63693 32.8153C8.75814 33.0729 8.92955 33.2727 9.15114 33.4148C9.37273 33.5568 9.63504 33.6278 9.93807 33.6278C10.1445 33.6278 10.3254 33.5956 10.4807 33.5312C10.6379 33.4669 10.7695 33.3807 10.8756 33.2727C10.9835 33.1629 11.065 33.0426 11.1199 32.9119L11.6 33.0682C11.5337 33.2519 11.4248 33.4214 11.2733 33.5767C11.1237 33.732 10.9362 33.857 10.7108 33.9517C10.4873 34.0445 10.2297 34.0909 9.93807 34.0909ZM15.6411 34.0994C15.3778 34.0994 15.1373 34.0483 14.9195 33.946C14.7017 33.8419 14.5284 33.6922 14.3996 33.4972C14.2708 33.3002 14.2064 33.0616 14.2064 32.7812C14.2064 32.5653 14.2471 32.3835 14.3286 32.2358C14.41 32.0881 14.5255 31.9669 14.6751 31.8722C14.8248 31.7775 15.0018 31.7027 15.2064 31.6477C15.4109 31.5928 15.6363 31.5502 15.8825 31.5199C16.1268 31.4896 16.3333 31.4631 16.5018 31.4403C16.6723 31.4176 16.802 31.3816 16.8911 31.3324C16.9801 31.2831 17.0246 31.2036 17.0246 31.0938V30.9915C17.0246 30.6941 16.9356 30.4602 16.7575 30.2898C16.5814 30.1174 16.3276 30.0312 15.9962 30.0312C15.6818 30.0312 15.4251 30.1004 15.2263 30.2386C15.0293 30.3769 14.8911 30.5398 14.8115 30.7273L14.3314 30.554C14.4299 30.3153 14.5662 30.125 14.7405 29.983C14.9147 29.839 15.1098 29.7358 15.3257 29.6733C15.5416 29.6089 15.7604 29.5767 15.982 29.5767C16.1486 29.5767 16.3219 29.5985 16.5018 29.642C16.6837 29.6856 16.8522 29.7614 17.0075 29.8693C17.1628 29.9754 17.2888 30.1241 17.3854 30.3153C17.482 30.5047 17.5303 30.7453 17.5303 31.0369V34H17.0246V33.3097H16.9933C16.9327 33.4384 16.8428 33.5634 16.7234 33.6847C16.6041 33.8059 16.4545 33.9053 16.2746 33.983C16.0946 34.0606 15.8835 34.0994 15.6411 34.0994ZM15.7092 33.6364C15.9782 33.6364 16.2111 33.5767 16.4081 33.4574C16.6051 33.3381 16.7566 33.1799 16.8626 32.983C16.9706 32.7841 17.0246 32.5653 17.0246 32.3267V31.696C16.9867 31.732 16.9232 31.7642 16.8342 31.7926C16.7471 31.821 16.6458 31.8466 16.5303 31.8693C16.4166 31.8902 16.303 31.9081 16.1893 31.9233C16.0757 31.9384 15.9734 31.9517 15.8825 31.9631C15.6363 31.9934 15.4261 32.0407 15.2518 32.1051C15.0776 32.1695 14.9441 32.2585 14.8513 32.3722C14.7585 32.4839 14.7121 32.6278 14.7121 32.804C14.7121 33.0691 14.8068 33.2746 14.9962 33.4205C15.1856 33.5644 15.4232 33.6364 15.7092 33.6364ZM20.9811 28.1818V34H20.4754V28.1818H20.9811ZM25.6379 29.6364V30.0767H23.5555V29.6364H25.6379ZM24.2061 28.5909H24.7146V32.8608C24.7146 33.0426 24.7459 33.1856 24.8084 33.2898C24.8709 33.392 24.9523 33.465 25.0527 33.5085C25.1531 33.5502 25.2601 33.571 25.3737 33.571C25.44 33.571 25.4968 33.5672 25.5442 33.5597C25.5915 33.5502 25.6332 33.5407 25.6692 33.5312L25.7771 33.9886C25.7279 34.0076 25.6673 34.0246 25.5953 34.0398C25.5233 34.0568 25.4343 34.0653 25.3283 34.0653C25.1427 34.0653 24.9637 34.0246 24.7913 33.9432C24.6209 33.8617 24.4807 33.7405 24.3709 33.5795C24.261 33.4186 24.2061 33.2188 24.2061 32.9801V28.5909ZM28.9858 31.2727V34H28.4801V28.1818H28.9858V30.321H29.0312C29.1335 30.0956 29.2917 29.9157 29.5057 29.7812C29.7216 29.6468 29.9943 29.5795 30.3239 29.5795C30.6193 29.5795 30.8788 29.6402 31.1023 29.7614C31.3258 29.8826 31.5 30.0616 31.625 30.2983C31.75 30.535 31.8125 30.8267 31.8125 31.1733V34H31.304V31.2045C31.304 30.8447 31.2036 30.5616 31.0028 30.3551C30.804 30.1468 30.535 30.0426 30.196 30.0426C29.9631 30.0426 29.7557 30.0919 29.5739 30.1903C29.392 30.2888 29.2481 30.4309 29.142 30.6165C29.0379 30.8002 28.9858 31.0189 28.9858 31.2727ZM34.9402 35.6364C34.8398 35.6364 34.7461 35.6269 34.6589 35.608C34.5718 35.589 34.5027 35.5682 34.4516 35.5455L34.5879 35.0994C34.7603 35.1525 34.9137 35.1714 35.0482 35.1562C35.1826 35.143 35.3019 35.0824 35.4061 34.9744C35.5103 34.8684 35.6031 34.7055 35.6845 34.4858L35.8436 34.0426L34.2385 29.6364H34.7868L36.0822 33.3324H36.122L37.4175 29.6364H37.9658L36.1192 34.6903C36.0415 34.9006 35.9459 35.0758 35.8322 35.2159C35.7186 35.358 35.587 35.4631 35.4374 35.5312C35.2896 35.6013 35.1239 35.6364 34.9402 35.6364ZM44.5102 28.1818H45.1239L47.2347 33.25H47.2858L49.3966 28.1818H50.0102V34H49.5102V29.304H49.4648L47.5017 34H47.0187L45.0557 29.304H45.0102V34H44.5102V28.1818ZM54.2707 34.0994C54.0075 34.0994 53.767 34.0483 53.5491 33.946C53.3313 33.8419 53.1581 33.6922 53.0293 33.4972C52.9005 33.3002 52.8361 33.0616 52.8361 32.7812C52.8361 32.5653 52.8768 32.3835 52.9582 32.2358C53.0397 32.0881 53.1552 31.9669 53.3048 31.8722C53.4545 31.7775 53.6315 31.7027 53.8361 31.6477C54.0406 31.5928 54.266 31.5502 54.5122 31.5199C54.7565 31.4896 54.963 31.4631 55.1315 31.4403C55.302 31.4176 55.4317 31.3816 55.5207 31.3324C55.6098 31.2831 55.6543 31.2036 55.6543 31.0938V30.9915C55.6543 30.6941 55.5652 30.4602 55.3872 30.2898C55.2111 30.1174 54.9573 30.0312 54.6259 30.0312C54.3115 30.0312 54.0548 30.1004 53.856 30.2386C53.659 30.3769 53.5207 30.5398 53.4412 30.7273L52.9611 30.554C53.0596 30.3153 53.1959 30.125 53.3702 29.983C53.5444 29.839 53.7395 29.7358 53.9554 29.6733C54.1713 29.6089 54.3901 29.5767 54.6116 29.5767C54.7783 29.5767 54.9516 29.5985 55.1315 29.642C55.3134 29.6856 55.4819 29.7614 55.6372 29.8693C55.7925 29.9754 55.9185 30.1241 56.0151 30.3153C56.1116 30.5047 56.1599 30.7453 56.1599 31.0369V34H55.6543V33.3097H55.623C55.5624 33.4384 55.4724 33.5634 55.3531 33.6847C55.2338 33.8059 55.0842 33.9053 54.9043 33.983C54.7243 34.0606 54.5132 34.0994 54.2707 34.0994ZM54.3389 33.6364C54.6079 33.6364 54.8408 33.5767 55.0378 33.4574C55.2348 33.3381 55.3863 33.1799 55.4923 32.983C55.6003 32.7841 55.6543 32.5653 55.6543 32.3267V31.696C55.6164 31.732 55.5529 31.7642 55.4639 31.7926C55.3768 31.821 55.2755 31.8466 55.1599 31.8693C55.0463 31.8902 54.9327 31.9081 54.819 31.9233C54.7054 31.9384 54.6031 31.9517 54.5122 31.9631C54.266 31.9934 54.0558 32.0407 53.8815 32.1051C53.7073 32.1695 53.5738 32.2585 53.481 32.3722C53.3882 32.4839 53.3418 32.6278 53.3418 32.804C53.3418 33.0691 53.4365 33.2746 53.6259 33.4205C53.8152 33.5644 54.0529 33.6364 54.3389 33.6364ZM60.6761 34.0909C60.3182 34.0909 60.0047 33.9962 59.7358 33.8068C59.4669 33.6174 59.2566 33.3532 59.1051 33.0142C58.9555 32.6752 58.8807 32.2803 58.8807 31.8295C58.8807 31.3807 58.9555 30.9877 59.1051 30.6506C59.2566 30.3116 59.4678 30.0483 59.7386 29.8608C60.0095 29.6714 60.3248 29.5767 60.6847 29.5767C60.9498 29.5767 61.1705 29.6241 61.3466 29.7188C61.5227 29.8116 61.6638 29.9271 61.7699 30.0653C61.8759 30.2036 61.9583 30.3381 62.017 30.4688H62.0625V28.1818H62.571V34H62.0767V33.1903H62.017C61.9583 33.3229 61.875 33.4593 61.767 33.5994C61.6591 33.7377 61.5161 33.8542 61.3381 33.9489C61.1619 34.0436 60.9413 34.0909 60.6761 34.0909ZM60.7358 33.6278C61.018 33.6278 61.2585 33.5511 61.4574 33.3977C61.6563 33.2424 61.8078 33.0294 61.9119 32.7585C62.018 32.4858 62.071 32.1733 62.071 31.821C62.071 31.4725 62.0189 31.1648 61.9148 30.8977C61.8106 30.6288 61.6591 30.4186 61.4602 30.267C61.2614 30.1136 61.0199 30.0369 60.7358 30.0369C60.4441 30.0369 60.1979 30.1165 59.9972 30.2756C59.7983 30.4328 59.6468 30.6458 59.5426 30.9148C59.4403 31.1837 59.3892 31.4858 59.3892 31.821C59.3892 32.16 59.4413 32.4659 59.5455 32.7386C59.6496 33.0114 59.8011 33.2282 60 33.3892C60.2008 33.5483 60.446 33.6278 60.7358 33.6278ZM67.3756 34.0909C66.9684 34.0909 66.6161 33.9962 66.3187 33.8068C66.0214 33.6155 65.7913 33.3513 65.6284 33.0142C65.4674 32.6752 65.3869 32.285 65.3869 31.8438C65.3869 31.4044 65.4674 31.0142 65.6284 30.6733C65.7913 30.3305 66.0157 30.0625 66.3017 29.8693C66.5896 29.6742 66.922 29.5767 67.2989 29.5767C67.5356 29.5767 67.7638 29.6203 67.9835 29.7074C68.2032 29.7926 68.4002 29.9242 68.5744 30.1023C68.7506 30.2784 68.8898 30.5009 68.992 30.7699C69.0943 31.0369 69.1455 31.3532 69.1455 31.7188V31.9688H65.7364V31.5227H68.6284C68.6284 31.2424 68.5716 30.9905 68.458 30.767C68.3462 30.5417 68.19 30.3636 67.9892 30.233C67.7903 30.1023 67.5602 30.0369 67.2989 30.0369C67.0223 30.0369 66.779 30.1108 66.5687 30.2585C66.3585 30.4062 66.1937 30.6013 66.0744 30.8438C65.957 31.0862 65.8973 31.3513 65.8955 31.6392V31.9062C65.8955 32.2528 65.9551 32.5559 66.0744 32.8153C66.1956 33.0729 66.367 33.2727 66.5886 33.4148C66.8102 33.5568 67.0725 33.6278 67.3756 33.6278C67.582 33.6278 67.7629 33.5956 67.9182 33.5312C68.0754 33.4669 68.207 33.3807 68.3131 33.2727C68.421 33.1629 68.5025 33.0426 68.5574 32.9119L69.0375 33.0682C68.9712 33.2519 68.8623 33.4214 68.7108 33.5767C68.5612 33.732 68.3737 33.857 68.1483 33.9517C67.9248 34.0445 67.6672 34.0909 67.3756 34.0909ZM78.974 29.6364C78.9418 29.3125 78.7988 29.0549 78.545 28.8636C78.2912 28.6723 77.9721 28.5767 77.5876 28.5767C77.3168 28.5767 77.0782 28.6231 76.8717 28.7159C76.6672 28.8087 76.5062 28.9375 76.3888 29.1023C76.2733 29.2652 76.2155 29.4508 76.2155 29.6591C76.2155 29.8125 76.2486 29.947 76.3149 30.0625C76.3812 30.178 76.4702 30.2775 76.582 30.3608C76.6956 30.4422 76.8206 30.5123 76.957 30.571C77.0952 30.6297 77.2344 30.679 77.3746 30.7188L77.9882 30.8949C78.1738 30.946 78.3594 31.0114 78.545 31.0909C78.7306 31.1705 78.9001 31.2708 79.0536 31.392C79.2089 31.5114 79.3329 31.6581 79.4257 31.8324C79.5204 32.0047 79.5678 32.2121 79.5678 32.4545C79.5678 32.7652 79.4873 33.0445 79.3263 33.2926C79.1653 33.5407 78.9342 33.7377 78.6331 33.8835C78.332 34.0275 77.9712 34.0994 77.5507 34.0994C77.1549 34.0994 76.8111 34.0341 76.5195 33.9034C76.2278 33.7708 75.9986 33.5881 75.832 33.3551C75.6653 33.1222 75.5715 32.8523 75.5507 32.5455H76.0962C76.1151 32.7746 76.1909 32.9687 76.3234 33.1278C76.456 33.2869 76.6284 33.4081 76.8405 33.4915C77.0526 33.5729 77.2893 33.6136 77.5507 33.6136C77.8405 33.6136 78.0981 33.5653 78.3234 33.4688C78.5507 33.3703 78.7287 33.2339 78.8575 33.0597C78.9882 32.8835 79.0536 32.679 79.0536 32.446C79.0536 32.2491 79.0024 32.0843 78.9001 31.9517C78.7979 31.8172 78.6549 31.7045 78.4712 31.6136C78.2893 31.5227 78.0782 31.4422 77.8376 31.3722L77.1416 31.1676C76.6852 31.0312 76.331 30.8428 76.0791 30.6023C75.8272 30.3617 75.7013 30.0549 75.7013 29.6818C75.7013 29.3693 75.7846 29.0947 75.9513 28.858C76.1198 28.6193 76.3471 28.4337 76.6331 28.3011C76.921 28.1667 77.2439 28.0994 77.6018 28.0994C77.9636 28.0994 78.2837 28.1657 78.5621 28.2983C78.8405 28.4309 79.0611 28.6136 79.224 28.8466C79.3888 29.0777 79.4768 29.3409 79.4882 29.6364H78.974ZM82.3467 34V29.6364H82.8553V34H82.3467ZM82.6053 28.8864C82.5011 28.8864 82.4121 28.8513 82.3382 28.7812C82.2643 28.7093 82.2274 28.6231 82.2274 28.5227C82.2274 28.4223 82.2643 28.3371 82.3382 28.267C82.4121 28.1951 82.5011 28.1591 82.6053 28.1591C82.7094 28.1591 82.7984 28.1951 82.8723 28.267C82.9462 28.3371 82.9831 28.4223 82.9831 28.5227C82.9831 28.6231 82.9462 28.7093 82.8723 28.7812C82.7984 28.8513 82.7094 28.8864 82.6053 28.8864ZM85.7926 34V29.6364H86.2841V30.3068H86.3295C86.4167 30.0814 86.5616 29.9044 86.7642 29.7756C86.9688 29.6449 87.214 29.5795 87.5 29.5795C87.8011 29.5795 88.0483 29.6506 88.2415 29.7926C88.4366 29.9328 88.5824 30.1259 88.679 30.3722H88.7159C88.8144 30.1297 88.9744 29.9375 89.196 29.7955C89.4195 29.6515 89.6903 29.5795 90.0085 29.5795C90.4138 29.5795 90.7339 29.7074 90.9688 29.9631C91.2036 30.2169 91.321 30.5881 91.321 31.0767V34H90.8153V31.0767C90.8153 30.732 90.7273 30.4735 90.5511 30.3011C90.375 30.1288 90.143 30.0426 89.8551 30.0426C89.5218 30.0426 89.2652 30.1449 89.0852 30.3494C88.9053 30.554 88.8153 30.8134 88.8153 31.1278V34H88.2983V31.0312C88.2983 30.7358 88.2159 30.4972 88.0511 30.3153C87.8864 30.1335 87.6544 30.0426 87.3551 30.0426C87.1544 30.0426 86.9735 30.0919 86.8125 30.1903C86.6534 30.2888 86.5275 30.4261 86.4347 30.6023C86.3438 30.7765 86.2983 30.9773 86.2983 31.2045V34H85.7926ZM94.2598 35.6364V29.6364H94.7513V30.4688H94.8109C94.8715 30.3381 94.9549 30.2045 95.0609 30.0682C95.167 29.9299 95.3071 29.8134 95.4814 29.7188C95.6575 29.6241 95.8791 29.5767 96.1462 29.5767C96.506 29.5767 96.8204 29.6714 97.0893 29.8608C97.3602 30.0483 97.5704 30.3116 97.72 30.6506C97.8715 30.9877 97.9473 31.3807 97.9473 31.8295C97.9473 32.2803 97.8715 32.6752 97.72 33.0142C97.5704 33.3532 97.3602 33.6174 97.0893 33.8068C96.8204 33.9962 96.5079 34.0909 96.1518 34.0909C95.8886 34.0909 95.6679 34.0436 95.4899 33.9489C95.3138 33.8542 95.1708 33.7377 95.0609 33.5994C94.953 33.4593 94.8696 33.3229 94.8109 33.1903H94.7655V35.6364H94.2598ZM94.7598 31.821C94.7598 32.1733 94.8119 32.4858 94.916 32.7585C95.0221 33.0294 95.1736 33.2424 95.3706 33.3977C95.5695 33.5511 95.81 33.6278 96.0922 33.6278C96.382 33.6278 96.6263 33.5483 96.8251 33.3892C97.0259 33.2282 97.1784 33.0114 97.2825 32.7386C97.3886 32.4659 97.4416 32.16 97.4416 31.821C97.4416 31.4858 97.3895 31.1837 97.2854 30.9148C97.1831 30.6458 97.0316 30.4328 96.8308 30.2756C96.6301 30.1165 96.3839 30.0369 96.0922 30.0369C95.8081 30.0369 95.5666 30.1136 95.3678 30.267C95.1689 30.4186 95.0174 30.6288 94.9132 30.8977C94.8109 31.1648 94.7598 31.4725 94.7598 31.821ZM101.162 28.1818V34H100.657V28.1818H101.162ZM105.865 34.0909C105.457 34.0909 105.105 33.9962 104.808 33.8068C104.51 33.6155 104.28 33.3513 104.117 33.0142C103.956 32.6752 103.876 32.285 103.876 31.8438C103.876 31.4044 103.956 31.0142 104.117 30.6733C104.28 30.3305 104.505 30.0625 104.791 29.8693C105.079 29.6742 105.411 29.5767 105.788 29.5767C106.025 29.5767 106.253 29.6203 106.473 29.7074C106.692 29.7926 106.889 29.9242 107.063 30.1023C107.24 30.2784 107.379 30.5009 107.481 30.7699C107.583 31.0369 107.635 31.3532 107.635 31.7188V31.9688H104.225V31.5227H107.117C107.117 31.2424 107.061 30.9905 106.947 30.767C106.835 30.5417 106.679 30.3636 106.478 30.233C106.279 30.1023 106.049 30.0369 105.788 30.0369C105.511 30.0369 105.268 30.1108 105.058 30.2585C104.848 30.4062 104.683 30.6013 104.563 30.8438C104.446 31.0862 104.386 31.3513 104.385 31.6392V31.9062C104.385 32.2528 104.444 32.5559 104.563 32.8153C104.685 33.0729 104.856 33.2727 105.078 33.4148C105.299 33.5568 105.562 33.6278 105.865 33.6278C106.071 33.6278 106.252 33.5956 106.407 33.5312C106.564 33.4669 106.696 33.3807 106.802 33.2727C106.91 33.1629 106.992 33.0426 107.046 32.9119L107.527 33.0682C107.46 33.2519 107.351 33.4214 107.2 33.5767C107.05 33.732 106.863 33.857 106.637 33.9517C106.414 34.0445 106.156 34.0909 105.865 34.0909Z" fill="white"/>
</svg>
